HIERARCHY
ROOT Hips
{
 OFFSET 0.000000 0.000000 0.000000
 CHANNELS 6 Xposition Yposition Zposition Yrotation Xrotation Zrotation
 JOINT Chest
 {
  OFFSET 0.000000 9.585900 0.002600
  CHANNELS 3 Yrotation Xrotation Zrotation
  JOINT Chest2
  {
   OFFSET 0.000000 9.601200 -0.005300
   CHANNELS 3 Yrotation Xrotation Zrotation
   JOINT Chest3
   {
    OFFSET 0.000000 9.561800 0.000000
    CHANNELS 3 Yrotation Xrotation Zrotation
    JOINT Chest4
    {
     OFFSET 0.000000 9.552100 0.000000
     CHANNELS 3 Yrotation Xrotation Zrotation
     JOINT Neck
     {
      OFFSET 0.000000 14.453000 0.000000
      CHANNELS 3 Yrotation Xrotation Zrotation
      JOINT Head
      {
       OFFSET 0.000000 8.936500 -0.011300
       CHANNELS 3 Yrotation Xrotation Zrotation
       End Site
       {
        OFFSET 0.000000 17.073600 -0.006000
       }
      }
     }
     JOINT RightCollar
     {
      OFFSET -2.921100 9.558500 0.000000
      CHANNELS 3 Yrotation Xrotation Zrotation
      JOINT RightShoulder
      {
       OFFSET -13.519700 0.000000 0.000000
       CHANNELS 3 Yrotation Xrotation Zrotation
       JOINT RightElbow
       {
        OFFSET 0.000000 -29.696600 0.000000
        CHANNELS 3 Yrotation Xrotation Zrotation
        JOINT RightWrist
        {
         OFFSET 0.000000 -24.004700 0.000000
         CHANNELS 3 Yrotation Xrotation Zrotation
         End Site
         {
          OFFSET 0.000000 -17.728500 0.000000
         }
        }
       }
      }
     }
     JOINT LeftCollar
     {
      OFFSET 2.921100 9.558500 0.000000
      CHANNELS 3 Yrotation Xrotation Zrotation
      JOINT LeftShoulder
      {
       OFFSET 13.519700 0.000000 0.000000
       CHANNELS 3 Yrotation Xrotation Zrotation
       JOINT LeftElbow
       {
        OFFSET 0.000000 -29.696600 0.000000
        CHANNELS 3 Yrotation Xrotation Zrotation
        JOINT LeftWrist
        {
         OFFSET 0.000000 -24.004700 0.000000
         CHANNELS 3 Yrotation Xrotation Zrotation
         End Site
         {
          OFFSET 0.000000 -17.728500 0.000000
         }
        }
       }
      }
     }
    }
   }
  }
 }
 JOINT RightHip
 {
  OFFSET -7.771700 -0.012900 -0.001300
  CHANNELS 3 Yrotation Xrotation Zrotation
  JOINT RightKnee
  {
   OFFSET 0.000000 -40.869800 0.001200
   CHANNELS 3 Yrotation Xrotation Zrotation
   JOINT RightAnkle
   {
    OFFSET 0.000000 -39.717900 0.002100
    CHANNELS 3 Yrotation Xrotation Zrotation
    JOINT RightToe
    {
     OFFSET 0.000000 -4.965400 11.033500
     CHANNELS 3 Yrotation Xrotation Zrotation
     End Site
     {
      OFFSET 0.000000 -1.423100 5.872300
     }
    }
   }
  }
 }
 JOINT LeftHip
 {
  OFFSET 7.771700 -0.012900 -0.001300
  CHANNELS 3 Yrotation Xrotation Zrotation
  JOINT LeftKnee
  {
   OFFSET 0.000000 -40.869800 0.001200
   CHANNELS 3 Yrotation Xrotation Zrotation
   JOINT LeftAnkle
   {
    OFFSET 0.000000 -39.717900 0.002100
    CHANNELS 3 Yrotation Xrotation Zrotation
    JOINT LeftToe
    {
     OFFSET 0.000000 -4.965400 11.033500
     CHANNELS 3 Yrotation Xrotation Zrotation
     End Site
     {
      OFFSET 0.000000 -1.423100 5.872300
     }
    }
   }
  }
 }
}
MOTION
Frames: 12
Frame Time: 0.008333
21.310383 49.990717 57.770353 172.641880 -29.367732 -6.361531 7.079021 18.908830 7.473044 0.783158 2.511401 0.716307 1.297072 4.099085 1.189322 5.868729 16.298430 5.473446 -2.365747 19.513239 2.709808 -5.140071 0.671273 5.612129 -4.956077 -3.196641 -8.851066 5.183557 -3.496948 -3.927724 -133.922128 -45.593744 147.789954 -7.409792 -2.804360 57.911590 -9.967632 -4.754886 1.225512 8.388085 -8.258772 8.145584 107.271472 -44.973832 -137.539404 30.633506 12.005366 -57.608954 -0.978091 -50.811291 10.657343 -141.308057 84.801569 -129.288265 -1.393049 -14.492218 -4.459519 -0.065582 0.812356 -0.032761 -8.248103 -54.953195 17.373958 -150.042784 80.028374 -158.362166 0.017321 -17.716338 8.940319 -0.455922 -0.747892 -0.213135
21.316896 49.986414 57.764662 172.636126 -29.353106 -6.355098 7.098901 19.055200 7.516619 0.788789 2.547867 0.725946 1.305823 4.155599 1.204566 5.871128 16.401164 5.502677 -2.408652 19.182572 2.575629 -5.188795 0.032050 5.416095 -5.009544 -3.236642 -8.860456 5.221154 -3.652942 -3.987669 -134.176186 -45.415257 148.076399 -7.458016 -2.866781 57.662049 -10.073893 -4.713928 1.268498 8.381988 -8.314166 8.093245 107.310375 -44.724024 -137.587955 30.945820 11.680324 -56.804779 -0.985320 -50.831111 10.666068 -141.538200 84.803559 -129.513036 -1.411643 -14.498734 -4.475267 -0.065392 0.807735 -0.029146 -8.241427 -54.968944 17.379254 -150.047097 80.015831 -158.371002 0.009949 -17.728351 8.945421 -0.455380 -0.741859 -0.210523
21.324588 49.983151 57.758632 172.630093 -29.347845 -6.356971 7.120981 19.210731 7.570945 0.794641 2.586177 0.736364 1.315001 4.214895 1.221147 5.874003 16.507521 5.535211 -2.442015 18.842275 2.437444 -5.241247 -0.643999 5.234285 -5.042819 -3.280952 -8.865991 5.232482 -3.779780 -4.051772 -134.408849 -45.215186 148.359316 -7.517275 -2.918191 57.520056 -10.180563 -4.672719 1.304535 8.389967 -8.353777 8.040334 107.361005 -44.441909 -137.692413 31.228459 11.347322 -56.169989 -0.999566 -50.837133 10.683493 -141.712153 84.804922 -129.678550 -1.417060 -14.508975 -4.498320 -0.063537 0.807707 -0.023650 -8.246424 -54.975263 17.397874 -150.028131 79.998015 -158.357573 0.017925 -17.740303 8.946695 -0.464878 -0.741065 -0.208270
21.331199 49.979412 57.754357 172.628623 -29.334991 -6.358015 7.133469 19.355640 7.623140 0.800834 2.625485 0.747533 1.324701 4.275737 1.238952 5.878440 16.614707 5.571389 -2.482093 18.483317 2.315589 -5.295994 -1.315060 5.043576 -5.058494 -3.327622 -8.872319 5.228008 -3.868346 -4.114722 -134.621481 -44.998443 148.631157 -7.586595 -2.959215 57.474446 -10.289435 -4.628568 1.332099 8.400891 -8.376325 7.987644 107.442426 -44.145271 -137.847341 31.474842 11.010516 -55.725015 -1.031471 -50.849408 10.714751 -141.795299 84.799841 -129.762655 -1.449042 -14.521706 -4.515909 -0.060248 0.808505 -0.018358 -8.260076 -54.990325 17.415890 -150.006523 79.984193 -158.339568 0.014982 -17.744356 8.943349 -0.459935 -0.742646 -0.203190
21.337940 49.976326 57.750233 172.623953 -29.328669 -6.360763 7.148584 19.500643 7.682676 0.807453 2.665589 0.759478 1.335051 4.337713 1.257897 5.885035 16.721903 5.611121 -2.528728 18.125643 2.196507 -5.362930 -1.983237 4.859968 -5.059939 -3.376245 -8.885258 5.213136 -3.917272 -4.166955 -134.811166 -44.773374 148.887560 -7.660112 -2.992779 57.507939 -10.401019 -4.582104 1.353002 8.409494 -8.388646 7.930012 107.573352 -43.857168 -138.051973 31.689217 10.687185 -55.458516 -1.046731 -50.855270 10.739114 -141.840296 84.796704 -129.795276 -1.500446 -14.537748 -4.521227 -0.075081 0.811037 -0.023553 -8.278658 -55.000010 17.436007 -149.931953 79.963855 -158.268878 0.042774 -17.745909 8.928014 -0.459595 -0.748917 -0.195400
21.343327 49.973853 57.745764 172.636547 -29.329535 -6.366381 7.148724 19.647174 7.739872 0.814442 2.705886 0.772058 1.345978 4.399766 1.277833 5.894029 16.827223 5.654140 -2.582542 17.775631 2.082594 -5.443714 -2.636506 4.687898 -5.045018 -3.423769 -8.906350 5.187794 -3.929930 -4.203862 -134.975911 -44.547734 149.123186 -7.726350 -3.020939 57.598661 -10.517098 -4.532861 1.370691 8.421128 -8.397888 7.863154 107.753401 -43.596208 -138.300960 31.870404 10.408170 -55.350974 -1.060882 -50.852158 10.739069 -142.049551 84.799570 -129.980420 -1.537750 -14.553827 -4.547386 -0.066132 0.809538 -0.018906 -8.306015 -55.001001 17.451909 -149.861598 79.947943 -158.207100 0.048657 -17.739171 8.927095 -0.441972 -0.757699 -0.194475
21.349216 49.971567 57.742451 172.630283 -29.334424 -6.369949 7.170412 19.786840 7.806233 0.821590 2.745576 0.784780 1.357087 4.460806 1.298062 5.904663 16.929129 5.698265 -2.640831 17.440435 1.977115 -5.534296 -3.261403 4.532062 -5.011531 -3.470969 -8.929956 5.157503 -3.912394 -4.229083 -135.119629 -44.328794 149.330585 -7.781264 -3.041223 57.724064 -10.635218 -4.480698 1.387660 8.441446 -8.409543 7.790256 107.976222 -43.374407 -138.584895 32.008975 10.193955 -55.378993 -1.077989 -50.847190 10.757126 -142.186010 84.801633 -130.108894 -1.526335 -14.559596 -4.571316 -0.030454 0.808827 -0.017766 -8.329712 -54.998101 17.479087 -149.806500 79.932757 -158.159229 0.057263 -17.731385 8.925753 -0.440066 -0.769234 -0.197071
21.353176 49.968434 57.741371 172.632254 -29.331391 -6.371729 7.182883 19.915883 7.864704 0.828759 2.784681 0.797568 1.368311 4.520943 1.318326 5.916331 17.028058 5.742762 -2.704033 17.113915 1.858918 -5.628082 -3.841693 4.406850 -4.962287 -3.521898 -8.951508 5.137836 -3.879651 -4.245391 -135.253193 -44.129040 149.506248 -7.827443 -3.052973 57.861952 -10.749941 -4.431709 1.403838 8.473334 -8.433233 7.717396 108.233902 -43.198471 -138.889605 32.098910 10.046168 -55.509691 -1.114757 -50.849537 10.776193 -142.343293 84.803854 -130.271570 -1.501456 -14.556922 -4.593029 -0.003276 0.803739 -0.020011 -8.359028 -55.004357 17.498355 -149.773274 79.922408 -158.135906 0.065619 -17.719783 8.925611 -0.431435 -0.780248 -0.200194
21.357747 49.965324 57.741979 172.628913 -29.329504 -6.380581 7.206017 20.042469 7.931805 0.836026 2.823212 0.810484 1.379812 4.580149 1.338809 5.929365 17.123941 5.788191 -2.770162 16.794859 1.745326 -5.721302 -4.372808 4.289425 -4.905782 -3.570308 -8.968648 5.141253 -3.856046 -4.257305 -135.381045 -43.960241 149.646681 -7.859108 -3.059235 57.990752 -10.857969 -4.393161 1.418016 8.513781 -8.476414 7.650340 108.503897 -43.064958 -139.190078 32.140732 9.964821 -55.718367 -1.139684 -50.853080 10.798183 -142.454768 84.809163 -130.380131 -1.461931 -14.549298 -4.615940 -0.023529 0.799094 -0.020329 -8.390882 -55.009384 17.526793 -149.770598 79.916542 -158.137917 0.074939 -17.710595 8.926955 -0.430228 -0.787428 -0.206285
21.362187 49.962329 57.744172 172.620317 -29.329109 -6.392846 7.240251 20.163988 8.005891 0.843217 2.860482 0.823406 1.391088 4.637362 1.359379 5.942884 17.215203 5.834424 -2.834430 16.510443 1.654625 -5.814127 -4.868421 4.168367 -4.848996 -3.601515 -8.980489 5.169831 -3.860491 -4.274745 -135.499828 -43.827305 149.747094 -7.867517 -3.060427 58.094829 -10.953721 -4.360829 1.426954 8.549726 -8.539671 7.589935 108.755466 -42.962365 -139.460276 32.133346 9.951353 -55.982662 -1.157841 -50.854981 10.828545 -142.475359 84.815223 -130.387487 -1.461853 -14.546069 -4.631408 -0.094000 0.798279 -0.023639 -8.419186 -55.013324 17.558583 -149.796927 79.913746 -158.163831 0.081670 -17.704027 8.926889 -0.426409 -0.788919 -0.207161
21.364150 49.959747 57.746734 172.619068 -29.334529 -6.400387 7.268550 20.282419 8.073510 0.849936 2.896197 0.836361 1.401580 4.692049 1.379945 5.955119 17.301239 5.881477 -2.879766 16.312252 1.622463 -5.916051 -5.362229 4.024027 -4.792732 -3.611234 -8.987444 5.218005 -3.896488 -4.306928 -135.603678 -43.729927 149.803046 -7.852288 -3.054441 58.161560 -11.033160 -4.325373 1.429502 8.572275 -8.622816 7.529319 108.963753 -42.883349 -139.685274 32.080672 10.002908 -56.274428 -1.186757 -50.850909 10.851764 -142.557936 84.822741 -130.471650 -1.432740 -14.535963 -4.651860 -0.053450 0.795733 -0.022586 -8.433307 -55.012302 17.567061 -149.845386 79.914499 -158.210790 0.087345 -17.698039 8.925659 -0.429146 -0.792528 -0.209940
21.362902 49.957087 57.750513 172.626264 -29.338877 -6.400403 7.286911 20.390753 8.131187 0.855951 2.930637 0.849325 1.411060 4.744721 1.400505 5.964660 17.383320 5.928892 -2.934932 16.109518 1.557569 -6.006636 -5.739172 3.935196 -4.737285 -3.605836 -8.992414 5.276562 -3.961691 -4.353074 -135.687922 -43.670373 149.816916 -7.824227 -3.040598 58.184006 -11.099104 -4.285524 1.424815 8.580055 -8.725118 7.466856 109.122379 -42.825391 -139.861911 31.990015 10.104571 -56.577783 -1.220366 -50.845716 10.856012 -142.703111 84.830415 -130.629950 -1.375584 -14.526314 -4.664966 -0.070688 0.794015 -0.030459 -8.430950 -55.013985 17.540503 -149.914949 79.924233 -158.268484 0.089247 -17.689120 8.922868 -0.420635 -0.791098 -0.211384
